<?xml version="1.0" encoding="UTF-8"?>
<svg width="700pt" height="700pt" version="1.1" viewBox="0 0 700 700" xmlns="http://www.w3.org/2000/svg">
 <g fill-rule="evenodd">
  <path d="m478.33 490v-291.67h-58.332c-6.4414 0-11.668-5.2227-11.668-11.664v-58.336h-221.66v361.67zm-46.664-345.17 30.168 30.168h-30.168zm58.332 368.5h-315c-3.0938 0-6.0625-1.2266-8.25-3.4141s-3.418-5.1562-3.418-8.25v-385c0-6.4453 5.2266-11.668 11.668-11.668h245c3.0938 0 6.0625 1.2305 8.25 3.418l70 70c2.1875 2.1875 3.418 5.1562 3.418 8.25v315c0 6.4414-5.2266 11.664-11.668 11.664z"/>
  <path d="m536.67 455h-11.668c-6.4414 0-11.668 5.2227-11.668 11.668 0 6.4414 5.2266 11.664 11.668 11.664h23.332c6.4453 0 11.668-5.2227 11.668-11.664v-303.34c0-3.0938-1.2305-6.0586-3.4141-8.25l-105-105c-2.1914-2.1875-5.1602-3.4141-8.2539-3.4141h-233.33c-6.4414 0-11.668 5.2227-11.668 11.664v46.668c0 6.4414 5.2266 11.668 11.668 11.668s11.668-5.2266 11.668-11.668v-35h216.83l98.168 98.164z"/>
  <path d="m338.33 315c0 6.4414-5.2227 11.668-11.664 11.668h-93.336c-6.4414 0-11.664-5.2266-11.664-11.668s5.2227-11.668 11.664-11.668h93.336c6.4414 0 11.664 5.2266 11.664 11.668z"/>
  <path d="m233.33 373.33h151.67c6.4414 0 11.668 5.2266 11.668 11.668s-5.2266 11.668-11.668 11.668h-151.67c-6.4414 0-11.664-5.2266-11.664-11.668s5.2227-11.668 11.664-11.668zm0-140h116.67c6.4414 0 11.668 5.2266 11.668 11.668s-5.2266 11.668-11.668 11.668h-116.67c-6.4414 0-11.664-5.2266-11.664-11.668s5.2227-11.668 11.664-11.668z"/>
 </g>
</svg>
