<?xml version="1.0" encoding="UTF-8"?>
<svg width="700pt" height="700pt" version="1.1" viewBox="0 0 700 700" xmlns="http://www.w3.org/2000/svg">
 <path d="m402.5 307.3c9.2461-13.828 14.18-30.09 14.176-46.727 0-22.695-9.0156-44.461-25.066-60.512-16.047-16.047-37.812-25.062-60.508-25.062-22.699 0-44.465 9.0156-60.512 25.062-16.051 16.051-25.066 37.816-25.066 60.512 0 22.695 9.0156 44.465 25.066 60.512 16.047 16.047 37.812 25.062 60.512 25.062 16.402 0.058593 32.461-4.6836 46.199-13.648l47.773 47.949c3.2852 3.3125 7.7578 5.1758 12.426 5.1758s9.1406-1.8633 12.426-5.1758c3.3125-3.2852 5.1758-7.7578 5.1758-12.426 0-4.6641-1.8633-9.1367-5.1758-12.422zm-122.5-46.727c0-13.414 5.3281-26.277 14.812-35.762s22.348-14.812 35.762-14.812c13.414 0 26.277 5.3281 35.762 14.812 9.4844 9.4844 14.812 22.348 14.812 35.762 0 13.414-5.3281 26.277-14.812 35.762-9.4844 9.4844-22.348 14.812-35.762 14.812-13.398-0.042969-26.234-5.3867-35.711-14.863-9.4727-9.4727-14.816-22.312-14.863-35.711zm250.25-124.07-68.773-82.602c-9.9961-11.996-24.812-18.922-40.426-18.898h-211.05c-13.926 0-27.277 5.5312-37.125 15.375-9.8438 9.8477-15.375 23.199-15.375 37.125v385c0 13.926 5.5312 27.277 15.375 37.125 9.8477 9.8438 23.199 15.375 37.125 15.375h280c13.926 0 27.277-5.5312 37.125-15.375 9.8438-9.8477 15.375-23.199 15.375-37.125v-302.4c-0.023438-12.289-4.3594-24.18-12.25-33.602zm-42.699 3.5h-32.551c-4.6406 0-9.0938-1.8438-12.375-5.125s-5.125-7.7344-5.125-12.375v-42.699zm19.949 332.5c0 4.6406-1.8438 9.0938-5.125 12.375s-7.7344 5.125-12.375 5.125h-280c-4.6406 0-9.0938-1.8438-12.375-5.125s-5.125-7.7344-5.125-12.375v-385c0-4.6406 1.8438-9.0938 5.125-12.375s7.7344-5.125 12.375-5.125h192.5v52.5c0 13.926 5.5312 27.277 15.375 37.125 9.8477 9.8438 23.199 15.375 37.125 15.375h52.5z"/>
</svg>
